<svg height="1214" width="720" xmlns="http://www.w3.org/2000/svg">
<rect height="1214" fill="#555" width="720"></rect>
<text fill="#7f7" font-family="Courier New" font-size="12" xml:space="preserve">
<tspan x="10" y="26">3 megabytes installed</tspan>
<tspan x="10" y="42"></tspan>
<tspan x="10" y="58">node_modules</tspan>
<tspan x="10" y="74">└─┬ update-notifier@2.1.0 </tspan>
<tspan x="10" y="90">  ├─┬ boxen@1.0.0 </tspan>
<tspan x="10" y="106">  │ ├─┬ ansi-align@1.1.0 </tspan>
<tspan x="10" y="122">  │ │ └─┬ string-width@1.0.2 </tspan>
<tspan x="10" y="138">  │ │   ├── code-point-at@1.1.0 </tspan>
<tspan x="10" y="154">  │ │   └─┬ is-fullwidth-code-point@1.0.0 </tspan>
<tspan x="10" y="170">  │ │     └── number-is-nan@1.0.1 </tspan>
<tspan x="10" y="186">  │ ├── camelcase@4.1.0 </tspan>
<tspan x="10" y="202">  │ ├── cli-boxes@1.0.0 </tspan>
<tspan x="10" y="218">  │ ├─┬ string-width@2.0.0 </tspan>
<tspan x="10" y="234">  │ │ └── is-fullwidth-code-point@2.0.0 </tspan>
<tspan x="10" y="250">  │ ├─┬ term-size@0.1.1 </tspan>
<tspan x="10" y="266">  │ │ └─┬ execa@0.4.0 </tspan>
<tspan x="10" y="282">  │ │   ├─┬ cross-spawn-async@2.2.5 </tspan>
<tspan x="10" y="298">  │ │   │ ├─┬ lru-cache@4.0.2 </tspan>
<tspan x="10" y="314">  │ │   │ │ ├── pseudomap@1.0.2 </tspan>
<tspan x="10" y="330">  │ │   │ │ └── yallist@2.1.2 </tspan>
<tspan x="10" y="346">  │ │   │ └─┬ which@1.2.14 </tspan>
<tspan x="10" y="362">  │ │   │   └── isexe@2.0.0 </tspan>
<tspan x="10" y="378">  │ │   ├── is-stream@1.1.0 </tspan>
<tspan x="10" y="394">  │ │   ├── npm-run-path@1.0.0 </tspan>
<tspan x="10" y="410">  │ │   ├── object-assign@4.1.1 </tspan>
<tspan x="10" y="426">  │ │   ├── path-key@1.0.0 </tspan>
<tspan x="10" y="442">  │ │   └── strip-eof@1.0.0 </tspan>
<tspan x="10" y="458">  │ └─┬ widest-line@1.0.0 </tspan>
<tspan x="10" y="474">  │   └── string-width@1.0.2 </tspan>
<tspan x="10" y="490">  ├─┬ chalk@1.1.3 </tspan>
<tspan x="10" y="506">  │ ├── ansi-styles@2.2.1 </tspan>
<tspan x="10" y="522">  │ ├── escape-string-regexp@1.0.5 </tspan>
<tspan x="10" y="538">  │ ├─┬ has-ansi@2.0.0 </tspan>
<tspan x="10" y="554">  │ │ └── ansi-regex@2.1.1 </tspan>
<tspan x="10" y="570">  │ ├── strip-ansi@3.0.1 </tspan>
<tspan x="10" y="586">  │ └── supports-color@2.0.0 </tspan>
<tspan x="10" y="602">  ├─┬ configstore@3.0.0 </tspan>
<tspan x="10" y="618">  │ ├─┬ dot-prop@4.1.1 </tspan>
<tspan x="10" y="634">  │ │ └── is-obj@1.0.1 </tspan>
<tspan x="10" y="650">  │ ├── graceful-fs@4.1.11 </tspan>
<tspan x="10" y="666">  │ ├─┬ mkdirp@0.5.1 </tspan>
<tspan x="10" y="682">  │ │ └── minimist@0.0.8 </tspan>
<tspan x="10" y="698">  │ ├─┬ unique-string@1.0.0 </tspan>
<tspan x="10" y="714">  │ │ └── crypto-random-string@1.0.0 </tspan>
<tspan x="10" y="730">  │ └─┬ write-file-atomic@1.3.4 </tspan>
<tspan x="10" y="746">  │   ├── imurmurhash@0.1.4 </tspan>
<tspan x="10" y="762">  │   └── slide@1.1.6 </tspan>
<tspan x="10" y="778">  ├── is-npm@1.0.0 </tspan>
<tspan x="10" y="794">  ├─┬ latest-version@3.1.0 </tspan>
<tspan x="10" y="810">  │ └─┬ package-json@4.0.1 </tspan>
<tspan x="10" y="826">  │   ├─┬ got@6.7.1 </tspan>
<tspan x="10" y="842">  │   │ ├─┬ create-error-class@3.0.2 </tspan>
<tspan x="10" y="858">  │   │ │ └── capture-stack-trace@1.0.0 </tspan>
<tspan x="10" y="874">  │   │ ├── duplexer3@0.1.4 </tspan>
<tspan x="10" y="890">  │   │ ├── get-stream@3.0.0 </tspan>
<tspan x="10" y="906">  │   │ ├── is-redirect@1.0.0 </tspan>
<tspan x="10" y="922">  │   │ ├── is-retry-allowed@1.1.0 </tspan>
<tspan x="10" y="938">  │   │ ├── lowercase-keys@1.0.0 </tspan>
<tspan x="10" y="954">  │   │ ├── safe-buffer@5.0.1 </tspan>
<tspan x="10" y="970">  │   │ ├── timed-out@4.0.1 </tspan>
<tspan x="10" y="986">  │   │ ├── unzip-response@2.0.1 </tspan>
<tspan x="10" y="1002">  │   │ └─┬ url-parse-lax@1.0.0 </tspan>
<tspan x="10" y="1018">  │   │   └── prepend-http@1.0.4 </tspan>
<tspan x="10" y="1034">  │   ├─┬ registry-auth-token@3.3.0 </tspan>
<tspan x="10" y="1050">  │   │ └─┬ rc@1.2.1 </tspan>
<tspan x="10" y="1066">  │   │   ├── deep-extend@0.4.1 </tspan>
<tspan x="10" y="1082">  │   │   ├── ini@1.3.4 </tspan>
<tspan x="10" y="1098">  │   │   ├── minimist@1.2.0 </tspan>
<tspan x="10" y="1114">  │   │   └── strip-json-comments@2.0.1 </tspan>
<tspan x="10" y="1130">  │   └── registry-url@3.1.0 </tspan>
<tspan x="10" y="1146">  ├── lazy-req@2.0.0 </tspan>
<tspan x="10" y="1162">  ├─┬ semver-diff@2.1.0 </tspan>
<tspan x="10" y="1178">  │ └── semver@5.3.0 </tspan>
<tspan x="10" y="1194">  └── xdg-basedir@3.0.0</tspan>
</text>
</svg>
